<?xml version="1.0" encoding="utf-8"?>
<!-- Generator: Adobe Illustrator 17.1.0, SVG Export Plug-In . SVG Version: 6.00 Build 0)  -->
<!DOCTYPE svg PUBLIC "-//W3C//DTD SVG 1.1//EN" "http://www.w3.org/Graphics/SVG/1.1/DTD/svg11.dtd">
<svg version="1.1" id="Layer_1" xmlns="http://www.w3.org/2000/svg" xmlns:xlink="http://www.w3.org/1999/xlink" x="0px" y="0px"
	 viewBox="0 0 400 200" enable-background="new 0 0 400 200" xml:space="preserve">
<g>
	<g>
		<path fill="#2163C6" d="M316.8,81.2c5.1,0,9,1.2,11.6,3.7c2.6,2.5,4,6,4.1,10.5c0.1,3.2-0.3,6.1-1.1,8.9c-0.8,2.7-2.1,5.1-3.8,7.1
			c-1.7,2-3.9,3.6-6.5,4.7c-2.6,1.1-5.7,1.7-9.2,1.7h-15.2l6.8-36.6H316.8z M312.3,111c2,0,3.8-0.4,5.4-1.1c1.6-0.8,2.9-1.8,3.9-3.1
			c1-1.3,1.8-2.8,2.3-4.5c0.5-1.7,0.8-3.5,0.7-5.5c0-1.3-0.2-2.5-0.5-3.6c-0.3-1.1-0.8-2-1.5-2.8c-0.7-0.8-1.5-1.4-2.5-1.8
			c-1-0.4-2.2-0.6-3.7-0.6h-6l-4.4,23.1H312.3z"/>
		<path fill="#2163C6" d="M355.2,81.2c1.8,0,3.5,0.1,4.9,0.4c1.5,0.2,2.7,0.7,3.7,1.3c1,0.6,1.8,1.5,2.4,2.6
			c0.6,1.1,0.9,2.5,0.9,4.3c0,1-0.1,2-0.4,3c-0.3,1-0.7,1.8-1.3,2.6s-1.3,1.4-2.1,1.9c-0.8,0.5-1.8,0.8-2.9,1l0,0.1
			c1.7,0.5,3.1,1.4,4.1,2.7c1,1.4,1.5,2.9,1.5,4.7c0,2-0.3,3.7-1,5.2c-0.7,1.5-1.7,2.8-3,3.7c-1.3,1-2.7,1.7-4.4,2.3
			c-1.7,0.5-3.4,0.8-5.2,0.8h-19.4l6.8-36.6H355.2z M352,111.5c1.8,0,3.3-0.5,4.5-1.5c1.1-1,1.7-2.5,1.7-4.4c0-1-0.2-1.7-0.6-2.3
			c-0.4-0.5-0.9-1-1.5-1.3c-0.6-0.3-1.3-0.5-2-0.5c-0.7-0.1-1.5-0.1-2.2-0.1h-7.8l-1.9,10.1H352z M354,96c1.5,0,2.7-0.4,3.8-1.2
			c1.1-0.8,1.6-2,1.5-3.6c0-1.4-0.4-2.4-1.2-2.9c-0.8-0.5-1.8-0.8-3.1-0.8h-8.5l-1.6,8.6H354z"/>
		<path fill="#2163C6" d="M283.1,91c-9.3,0-15.9,8.3-15.9,16.2c0,6.7,4.8,11.3,11.9,11.3c4.8,0,9.8-2.8,11.8-5.4c2-2.6,2.6-4,2.6-4
			c1-2.1,1.6-4.5,1.6-6.8C295.1,95.5,290,91,283.1,91z M279,112.7c-2.7,0-4.4-1.8-4.4-5c0-5.1,4.3-10.9,8.5-10.9
			c2.7,0,4.5,1.8,4.5,4.9C287.6,106.9,283.3,112.7,279,112.7z"/>
		<path fill="#2163C6" d="M198.9,96.7c-0.4-0.2-0.9-0.3-1.6-0.3c-3.9,0-7.5,4.8-7.5,9.9c0,4.3,2.5,6.9,6.9,6.9
			c4.9,0,9.9-3.6,13.1-10c1,0.1,2.4,0.8,3,1.5c-3.6,7.9-9.5,13.8-18.5,13.8c-7.7,0-12.6-4.4-12.6-11.5c0-7.8,5.8-16.1,15.1-16.1
			c6.5,0,9.5,4,9.5,7.8c0,2.8-1.7,5.7-4.9,5.7c-2.3,0-4.2-1.9-4.2-4.2C197.3,98.8,197.9,97.5,198.9,96.7z"/>
		<path fill="#2163C6" d="M239.5,104.6c-3.6,7.9-9.5,13.8-18.5,13.8c-7.7,0-12.6-4.4-12.6-11.6c0-7.9,5.9-16.1,14.9-16.1
			c5.8,0,9.4,3.4,9.4,7.4c0,4.5-4.4,10.3-16,10c0.7,3.1,3.1,4.9,6.7,4.9c5,0,9.9-3.6,13.1-10C237.6,103.2,239,104,239.5,104.6z
			 M216.6,104.8c6.4-0.1,9.2-2.9,9.2-5.2c0-1.2-0.7-2.3-2.6-2.3C220,97.3,217.2,100.7,216.6,104.8z"/>
		<path fill="#2163C6" d="M250.8,81.4l-8.5,27.6c-0.7,2.2-0.4,4,1.7,4c2.9,0,5.7-3.9,8.6-9.8c1,0.1,2.4,0.8,3,1.5
			c-3.7,8.1-8.3,13.7-14.6,13.7c-6.1,0-7.6-5-5.8-11.1l8-25.8H250.8z"/>
		<path fill="#2163C6" d="M266.8,81.4l-8.5,27.6c-0.7,2.2-0.4,4,1.7,4c2.9,0,5.7-3.9,8.6-9.8c1,0.1,2.4,0.8,3,1.5
			c-3.7,8.1-8.3,13.7-14.6,13.7c-6.1,0-7.6-5-5.8-11.1l8-25.8H266.8z"/>
		<path fill="#2163C6" d="M155.4,91.7l-5.6,18.3c-0.6,1.8-0.7,3.4,0.9,3.4c2.3,0,5.4-4,8.2-9.8c1,0.1,2.4,0.8,3,1.5
			c-3.6,7.9-8.4,13.7-14.4,13.7c-3.4,0-4.9-1.8-5.4-4.2c-2.3,2.6-5.4,4.2-8.6,4.2c-5.2,0-8.7-3.4-8.7-9.5c0-8.7,6.2-17.9,14.5-17.9
			c3.3,0,5.9,1.7,7.2,4.7l1.3-4.2H155.4z M140.2,98.2c-3.6,0-7.2,5.2-7.2,9.7c0,2.8,1.5,4.4,3.7,4.4c3.7,0,7.3-5.2,7.3-9.8
			C144,99.8,142.5,98.2,140.2,98.2z"/>
		<path fill="#2163C6" d="M159,103.6c1.1-2.4,5.3-11.8,5.3-11.8c4.9-2.4,10.6,0,10.6,0c2.8,1.3,4.8,3.2,2.9,8.6l-3.9,9.8
			c-0.6,1.8-0.6,3.4,0.9,3.4c2.3,0,5.4-4,8.2-9.8c1,0.1,2.4,0.8,3,1.5c-3.6,7.9-8.4,13.7-14.4,13.7c-6.1,0-6.2-6-4.9-10.4l3.7-9.1
			c0.7-1.9-0.5-2.8-1.7-3.3l-2.3-1.1c-1,2.4-3.3,7.6-4.5,10C160.9,105,159.5,104.2,159,103.6z"/>
		<polygon fill="#2163C6" points="125.4,81.4 117.1,81.4 102.7,99.6 94.9,81.4 87.6,81.4 80.9,118.2 88.7,118.2 93.3,93.4 
			100.8,111 101.4,111 115.3,93.5 110.7,118.2 118.6,118.2 		"/>
	</g>
	<g>
		<path fill="#2163C6" d="M66.2,87.9c0-3.8-7.9-6.9-17.3-6.9c-9.4,0-16.8,3-16.8,6.9c0,0.2,0,0.4,0.1,0.6h-0.1V94c0,0,4,5,16.8,5
			c13.4,0,17.3-5,17.3-5v-5.4h-0.1C66.2,88.3,66.2,88.1,66.2,87.9z M48.9,91.5c-6.3,0-11.4-1.8-11.4-4c0-2.2,5.1-4,11.4-4
			c6.3,0,11.4,1.8,11.4,4C60.3,89.7,55.2,91.5,48.9,91.5z"/>
		<g>
			<path fill="#2163C6" d="M48.9,112.8c-11.9,0-16.8-4.5-16.8-4.5v3.5c0,4.1,7.4,6.9,16.8,6.9c9.4,0,17.3-2.8,17.3-6.9l0-3.5
				C66.1,108.4,60.7,112.8,48.9,112.8z"/>
		</g>
		<path opacity="0.33" fill="#2163C6" d="M32.1,98.5v5.9c0,0,6.4,4.5,16.8,4.5c10.4,0,17.3-4.5,17.3-4.5v-5.9c0,0-5.4,4.5-17.3,4.5
			C37.3,102.9,32.3,98.7,32.1,98.5z"/>
	</g>
</g>
</svg>
