<?xml version="1.0" encoding="utf-8"?>
<!-- Generator: Adobe Illustrator 17.1.0, SVG Export Plug-In . SVG Version: 6.00 Build 0)  -->
<!DOCTYPE svg PUBLIC "-//W3C//DTD SVG 1.1//EN" "http://www.w3.org/Graphics/SVG/1.1/DTD/svg11.dtd">
<svg version="1.1" id="Layer_1" xmlns="http://www.w3.org/2000/svg" xmlns:xlink="http://www.w3.org/1999/xlink" x="0px" y="0px"
	 viewBox="0 0 200 200" enable-background="new 0 0 200 200" xml:space="preserve">
<g>
	<path fill="#FFFFFF" d="M172.1,48.5c0-16.3-33.6-29.2-73.8-29.2c-40.1,0-71.6,12.9-71.6,29.2c0,0.8,0.1,1.6,0.3,2.4h-0.3v23.2
		c0,0,16.9,21.1,71.6,21.1c56.9,0,73.8-21.1,73.8-21.1V50.9h-0.3C172,50.1,172.1,49.3,172.1,48.5z M98.3,63.5
		c-26.8,0-48.5-7.5-48.5-16.9c0-9.3,21.7-16.9,48.5-16.9c26.8,0,48.5,7.5,48.5,16.9C146.8,56,125.1,63.5,98.3,63.5z"/>
	<g>
		<path fill="#FFFFFF" d="M98.3,154.1c-50.6,0-71.6-19-71.6-19v14.8c0,17.6,31.5,29.5,71.6,29.5c40.1,0,73.8-11.9,73.8-29.5l0-14.7
			C171.6,135.5,148.4,154.1,98.3,154.1z"/>
	</g>
	<path opacity="0.33" fill="#FFFFFF" d="M26.7,93.3v25c0,0,27.3,19,71.6,19c44.2,0,73.7-19,73.7-19V93.2c0,0-23.2,19-73.8,19
		C48.8,112.2,27.6,94.1,26.7,93.3z"/>
</g>
</svg>
