<?xml version="1.0" encoding="utf-8"?>
<!-- Generator: Adobe Illustrator 17.1.0, SVG Export Plug-In . SVG Version: 6.00 Build 0)  -->
<!DOCTYPE svg PUBLIC "-//W3C//DTD SVG 1.1//EN" "http://www.w3.org/Graphics/SVG/1.1/DTD/svg11.dtd">
<svg version="1.1" id="Layer_1" xmlns="http://www.w3.org/2000/svg" xmlns:xlink="http://www.w3.org/1999/xlink" x="0px" y="0px"
	 viewBox="0 0 200 200" enable-background="new 0 0 200 200" xml:space="preserve">
<g>
	<path fill="#2163C6" d="M173.1,48.2c0-16.6-34.1-29.6-74.8-29.6c-40.7,0-72.7,13.1-72.7,29.6c0,0.8,0.1,1.6,0.3,2.4h-0.3v23.5
		c0,0,17.1,21.4,72.7,21.4c57.7,0,74.8-21.4,74.8-21.4V50.7h-0.3C173,49.9,173.1,49.1,173.1,48.2z M98.3,63.5
		c-27.2,0-49.2-7.7-49.2-17.1c0-9.4,22-17.1,49.2-17.1c27.2,0,49.2,7.7,49.2,17.1C147.5,55.8,125.4,63.5,98.3,63.5z"/>
	<g>
		<path fill="#2163C6" d="M98.3,155.4c-51.3,0-72.7-19.2-72.7-19.2v15c0,17.8,32,29.9,72.7,29.9c40.7,0,74.8-12.1,74.8-29.9l0-14.9
			C172.7,136.6,149.2,155.4,98.3,155.4z"/>
	</g>
	<path opacity="0.33" fill="#2163C6" d="M25.7,93.7v25.4c0,0,27.7,19.2,72.7,19.2c44.8,0,74.7-19.2,74.7-19.2V93.6
		c0,0-23.5,19.2-74.8,19.2C48.1,112.9,26.6,94.5,25.7,93.7z"/>
</g>
</svg>
