<?xml version="1.0" encoding="utf-8"?>
<!-- Generator: Adobe Illustrator 17.1.0, SVG Export Plug-In . SVG Version: 6.00 Build 0)  -->
<!DOCTYPE svg PUBLIC "-//W3C//DTD SVG 1.1//EN" "http://www.w3.org/Graphics/SVG/1.1/DTD/svg11.dtd">
<svg version="1.1" id="Layer_1" xmlns="http://www.w3.org/2000/svg" xmlns:xlink="http://www.w3.org/1999/xlink" x="0px" y="0px"
	 viewBox="0 0 400 200" enable-background="new 0 0 400 200" xml:space="preserve">
<g>
	<g>
		<path fill="#FFFFFF" d="M316.9,80.6c5.1,0,9,1.2,11.6,3.7c2.6,2.5,4,6,4.1,10.5c0.1,3.2-0.3,6.1-1.1,8.9c-0.8,2.7-2.1,5.1-3.8,7.1
			c-1.7,2-3.9,3.6-6.5,4.7c-2.6,1.1-5.7,1.7-9.2,1.7h-15.2l6.8-36.6H316.9z M312.3,110.5c2,0,3.8-0.4,5.4-1.1
			c1.6-0.8,2.9-1.8,3.9-3.1c1-1.3,1.8-2.8,2.3-4.5c0.5-1.7,0.8-3.5,0.7-5.5c0-1.3-0.2-2.5-0.5-3.6c-0.3-1.1-0.8-2-1.5-2.8
			c-0.7-0.8-1.5-1.4-2.5-1.8c-1-0.4-2.2-0.6-3.7-0.6h-6l-4.4,23.1H312.3z"/>
		<path fill="#FFFFFF" d="M355.2,80.6c1.8,0,3.5,0.1,4.9,0.4c1.5,0.2,2.7,0.7,3.7,1.3c1,0.6,1.8,1.5,2.4,2.6
			c0.6,1.1,0.9,2.5,0.9,4.3c0,1-0.1,2-0.4,3c-0.3,1-0.7,1.8-1.3,2.6c-0.6,0.8-1.3,1.4-2.1,1.9c-0.8,0.5-1.8,0.8-2.9,1l0,0.1
			c1.7,0.5,3.1,1.4,4.1,2.7c1,1.4,1.5,2.9,1.5,4.7c0,2-0.3,3.7-1,5.2c-0.7,1.5-1.7,2.8-3,3.7c-1.3,1-2.7,1.7-4.4,2.3
			c-1.7,0.5-3.4,0.8-5.2,0.8h-19.4l6.8-36.6H355.2z M352.1,111c1.8,0,3.3-0.5,4.5-1.5c1.1-1,1.7-2.5,1.7-4.4c0-1-0.2-1.7-0.6-2.3
			c-0.4-0.5-0.9-1-1.5-1.3c-0.6-0.3-1.3-0.5-2-0.5c-0.7-0.1-1.5-0.1-2.2-0.1h-7.8L342,111H352.1z M354,95.5c1.5,0,2.7-0.4,3.8-1.2
			c1.1-0.8,1.6-2,1.5-3.6c0-1.4-0.4-2.4-1.2-2.9c-0.8-0.5-1.8-0.8-3.1-0.8h-8.5l-1.6,8.6H354z"/>
		<path fill="#FFFFFF" d="M283.1,90.5c-9.3,0-15.9,8.3-15.9,16.2c0,6.7,4.8,11.3,11.9,11.3c4.8,0,9.8-2.8,11.8-5.4
			c2-2.6,2.6-4,2.6-4c1-2.1,1.6-4.5,1.6-6.8C295.1,95,290.1,90.5,283.1,90.5z M279,112.2c-2.7,0-4.4-1.8-4.4-5
			c0-5.1,4.3-10.9,8.5-10.9c2.7,0,4.5,1.8,4.5,4.9C287.6,106.3,283.3,112.2,279,112.2z"/>
		<path fill="#FFFFFF" d="M198.9,96.2c-0.4-0.2-0.9-0.3-1.6-0.3c-3.9,0-7.5,4.8-7.5,9.9c0,4.3,2.5,6.9,6.9,6.9
			c4.9,0,9.9-3.6,13.1-10c1,0.1,2.4,0.8,3,1.5c-3.6,7.9-9.5,13.8-18.5,13.8c-7.7,0-12.6-4.4-12.6-11.5c0-7.8,5.8-16.1,15.1-16.1
			c6.5,0,9.5,4,9.5,7.8c0,2.8-1.7,5.7-4.9,5.7c-2.3,0-4.2-1.9-4.2-4.2C197.3,98.3,197.9,97,198.9,96.2z"/>
		<path fill="#FFFFFF" d="M239.5,104.1c-3.6,7.9-9.5,13.8-18.5,13.8c-7.7,0-12.6-4.4-12.6-11.6c0-7.9,5.9-16.1,14.9-16.1
			c5.8,0,9.4,3.4,9.4,7.4c0,4.5-4.4,10.3-16,10c0.7,3.1,3.1,4.9,6.7,4.9c5,0,9.9-3.6,13.1-10C237.6,102.7,239,103.5,239.5,104.1z
			 M216.6,104.3c6.4-0.1,9.2-2.9,9.2-5.2c0-1.2-0.7-2.3-2.6-2.3C220,96.8,217.2,100.2,216.6,104.3z"/>
		<path fill="#FFFFFF" d="M250.8,80.9l-8.5,27.6c-0.7,2.2-0.4,4,1.7,4c2.9,0,5.7-3.9,8.6-9.8c1,0.1,2.4,0.8,3,1.5
			c-3.7,8.1-8.3,13.7-14.6,13.7c-6.1,0-7.6-5-5.8-11.1l8-25.8H250.8z"/>
		<path fill="#FFFFFF" d="M266.8,80.9l-8.5,27.6c-0.7,2.2-0.4,4,1.7,4c2.9,0,5.7-3.9,8.6-9.8c1,0.1,2.4,0.8,3,1.5
			c-3.7,8.1-8.3,13.7-14.6,13.7c-6.1,0-7.6-5-5.8-11.1l8-25.8H266.8z"/>
		<path fill="#FFFFFF" d="M155.4,91.2l-5.6,18.3c-0.6,1.8-0.7,3.4,0.9,3.4c2.3,0,5.4-4,8.2-9.8c1,0.1,2.4,0.8,3,1.5
			c-3.6,7.9-8.4,13.7-14.4,13.7c-3.4,0-4.9-1.8-5.4-4.2c-2.3,2.6-5.4,4.2-8.6,4.2c-5.2,0-8.7-3.4-8.7-9.5c0-8.7,6.2-18,14.5-18
			c3.3,0,5.9,1.7,7.2,4.7l1.3-4.2H155.4z M140.2,97.7c-3.6,0-7.2,5.2-7.2,9.7c0,2.8,1.5,4.4,3.7,4.4c3.7,0,7.3-5.2,7.3-9.8
			C144,99.3,142.4,97.7,140.2,97.7z"/>
		<path fill="#FFFFFF" d="M159,103.1c1.1-2.4,5.3-11.8,5.3-11.8c4.9-2.4,10.6,0,10.6,0c2.8,1.3,4.8,3.2,2.9,8.6l-3.9,9.8
			c-0.6,1.8-0.6,3.4,0.9,3.4c2.3,0,5.4-4,8.2-9.8c1,0.1,2.4,0.8,3,1.5c-3.6,7.9-8.4,13.7-14.4,13.7c-6.1,0-6.2-6-4.9-10.4l3.7-9.1
			c0.7-1.9-0.5-2.8-1.7-3.3l-2.3-1.1c-1,2.4-3.3,7.6-4.5,10C160.9,104.5,159.5,103.7,159,103.1z"/>
		<polygon fill="#FFFFFF" points="125.4,80.9 117.1,80.9 102.7,99 94.8,80.9 87.6,80.9 80.9,117.7 88.7,117.7 93.3,92.9 
			100.8,110.5 101.3,110.5 115.3,92.9 110.7,117.7 118.6,117.7 		"/>
	</g>
	<g>
		<path fill="#FFFFFF" d="M66.2,87.4c0-3.8-7.9-6.9-17.3-6.9c-9.4,0-16.8,3-16.8,6.9c0,0.2,0,0.4,0.1,0.6H32v5.5c0,0,4,5,16.8,5
			c13.4,0,17.3-5,17.3-5V88h-0.1C66.2,87.8,66.2,87.6,66.2,87.4z M48.9,91c-6.3,0-11.4-1.8-11.4-4c0-2.2,5.1-4,11.4-4
			c6.3,0,11.4,1.8,11.4,4C60.3,89.2,55.2,91,48.9,91z"/>
		<g>
			<path fill="#FFFFFF" d="M48.9,112.3c-11.9,0-16.8-4.5-16.8-4.5v3.5c0,4.1,7.4,6.9,16.8,6.9c9.4,0,17.3-2.8,17.3-6.9l0-3.5
				C66.1,107.9,60.7,112.3,48.9,112.3z"/>
		</g>
		<path opacity="0.33" fill="#FFFFFF" d="M32,98v5.9c0,0,6.4,4.5,16.8,4.5c10.4,0,17.3-4.5,17.3-4.5V98c0,0-5.5,4.5-17.3,4.5
			C37.2,102.4,32.2,98.2,32,98z"/>
	</g>
</g>
</svg>
